<?xml version="1.0" encoding="UTF-8" standalone="no"?>
<!DOCTYPE svg PUBLIC "-//W3C//DTD SVG 1.1//EN"
 "http://www.w3.org/Graphics/SVG/1.1/DTD/svg11.dtd">
<!-- Generated by graphviz version 2.44.0 (20200518.1210)
 -->
<!-- Title: L Pages: 1 -->
<svg width="368pt" height="517pt"
 viewBox="0.00 0.00 368.00 517.00" xmlns="http://www.w3.org/2000/svg" xmlns:xlink="http://www.w3.org/1999/xlink">
<g id="graph0" class="graph" transform="scale(1 1) rotate(0) translate(4 513)">
<title>L</title>
<polygon fill="white" stroke="transparent" points="-4,4 -4,-513 364,-513 364,4 -4,4"/>
<!-- 627 -->
<g id="node1" class="node">
<title>627</title>
<polygon fill="green" stroke="black" stroke-width="3" points="0,-327.5 0,-399.5 360,-399.5 360,-327.5 0,-327.5"/>
<text text-anchor="middle" x="179.67" y="-358.7" font-family="Arial" font-size="16.00">multy blocking</text>
</g>
<!-- 626 -->
<g id="node2" class="node">
<title>626</title>
<polygon fill="green" stroke="black" stroke-width="3" points="0,-218.5 0,-290.5 360,-290.5 360,-218.5 0,-218.5"/>
<text text-anchor="middle" x="179.77" y="-249.7" font-family="Arial" font-size="16.00">Bump protobufjs from 6.11.2 to 6.11.3</text>
</g>
<!-- 627&#45;&gt;626 -->
<g id="edge2" class="edge">
<title>627&#45;&gt;626</title>
<path fill="none" stroke="black" d="M180,-327.46C180,-318.97 180,-309.76 180,-300.86"/>
<polygon fill="black" stroke="black" points="183.5,-300.61 180,-290.61 176.5,-300.61 183.5,-300.61"/>
</g>
<!-- 634 -->
<g id="node3" class="node">
<title>634</title>
<polygon fill="green" stroke="black" stroke-width="3" points="0,-109.5 0,-181.5 360,-181.5 360,-109.5 0,-109.5"/>
<text text-anchor="middle" x="179.68" y="-140.7" font-family="Arial" font-size="16.00">Bump jpeg&#45;js and image&#45;js</text>
</g>
<!-- 626&#45;&gt;634 -->
<g id="edge3" class="edge">
<title>626&#45;&gt;634</title>
<path fill="none" stroke="black" d="M180,-218.46C180,-209.97 180,-200.76 180,-191.86"/>
<polygon fill="black" stroke="black" points="183.5,-191.61 180,-181.61 176.5,-191.61 183.5,-191.61"/>
</g>
<!-- 663 -->
<g id="node4" class="node">
<title>663</title>
<polygon fill="red" stroke="black" stroke-width="3" points="0,-0.5 0,-72.5 360,-72.5 360,-0.5 0,-0.5"/>
<text text-anchor="middle" x="179.86" y="-31.7" font-family="Arial" font-size="16.00">feat: Save post</text>
</g>
<!-- 634&#45;&gt;663 -->
<g id="edge4" class="edge">
<title>634&#45;&gt;663</title>
<path fill="none" stroke="black" d="M180,-109.46C180,-100.97 180,-91.76 180,-82.86"/>
<polygon fill="black" stroke="black" points="183.5,-82.61 180,-72.61 176.5,-82.61 183.5,-82.61"/>
</g>
<!-- base -->
<g id="node5" class="node">
<title>base</title>
<polygon fill="white" stroke="black" stroke-width="3" points="0,-436.5 0,-508.5 360,-508.5 360,-436.5 0,-436.5"/>
<text text-anchor="middle" x="179.84" y="-467.7" font-family="Arial" font-size="16.00">base</text>
</g>
<!-- base&#45;&gt;627 -->
<g id="edge1" class="edge">
<title>base&#45;&gt;627</title>
<path fill="none" stroke="black" d="M180,-436.46C180,-427.97 180,-418.76 180,-409.86"/>
<polygon fill="black" stroke="black" points="183.5,-409.61 180,-399.61 176.5,-409.61 183.5,-409.61"/>
</g>
</g>
</svg>
